<svg width="50" height="50" viewBox="0 0 50 50" fill="none" xmlns="http://www.w3.org/2000/svg">
<rect width="50" height="50" rx="5" fill="#FFEDEE"/>
<path d="M25.5573 14.4447C31.6948 14.4447 36.6698 19.4198 36.6698 25.5572C36.6698 31.6946 31.6948 36.6697 25.5573 36.6697C19.4199 36.6697 14.4448 31.6946 14.4448 25.5572C14.4448 19.4198 19.4199 14.4447 25.5573 14.4447ZM25.5573 16.6672C23.1995 16.6672 20.9383 17.6038 19.2711 19.271C17.6039 20.9382 16.6673 23.1994 16.6673 25.5572C16.6673 27.915 17.6039 30.1762 19.2711 31.8434C20.9383 33.5106 23.1995 34.4472 25.5573 34.4472C27.9151 34.4472 30.1763 33.5106 31.8435 31.8434C33.5107 30.1762 34.4473 27.915 34.4473 25.5572C34.4473 23.1994 33.5107 20.9382 31.8435 19.271C30.1763 17.6038 27.9151 16.6672 25.5573 16.6672ZM25.5573 18.8897C25.8295 18.8897 26.0922 18.9897 26.2956 19.1705C26.499 19.3514 26.629 19.6006 26.6608 19.8709L26.6686 20.001V25.0971L29.6767 28.1053C29.876 28.3053 29.9917 28.5736 30.0004 28.8558C30.009 29.138 29.9099 29.4129 29.7231 29.6247C29.5364 29.8365 29.2761 29.9692 28.995 29.996C28.7139 30.0228 28.4332 29.9415 28.2099 29.7688L28.1054 29.6766L24.7717 26.3429C24.599 26.17 24.488 25.945 24.4561 25.7028L24.4461 25.5572V20.001C24.4461 19.7062 24.5632 19.4236 24.7716 19.2152C24.98 19.0068 25.2626 18.8897 25.5573 18.8897Z" fill="#EC1A23"/>
</svg>
