<svg width="50" height="50" viewBox="0 0 50 50" fill="none" xmlns="http://www.w3.org/2000/svg">
<rect width="50" height="50" rx="5" fill="#FFEDEE"/>
<path d="M33.0553 23.0556C33.0553 21.0665 32.2652 19.1588 30.8586 17.7523C29.4521 16.3458 27.5445 15.5556 25.5553 15.5556C23.5662 15.5556 21.6586 16.3458 20.252 17.7523C18.8455 19.1588 18.0553 21.0665 18.0553 23.0556C18.0553 26.1322 20.517 30.1423 25.5553 34.9456C30.5937 30.1423 33.0553 26.1322 33.0553 23.0556ZM25.5553 37.2222C19.4437 31.6672 16.3887 26.9439 16.3887 23.0556C16.3887 20.6244 17.3544 18.2929 19.0735 16.5738C20.7926 14.8547 23.1242 13.8889 25.5553 13.8889C27.9865 13.8889 30.3181 14.8547 32.0371 16.5738C33.7562 18.2929 34.722 20.6244 34.722 23.0556C34.722 26.9439 31.667 31.6672 25.5553 37.2222Z" fill="#EC1A23"/>
<path d="M25.5553 25.5556C26.2184 25.5556 26.8543 25.2922 27.3231 24.8233C27.7919 24.3545 28.0553 23.7186 28.0553 23.0556C28.0553 22.3925 27.7919 21.7567 27.3231 21.2878C26.8543 20.819 26.2184 20.5556 25.5553 20.5556C24.8923 20.5556 24.2564 20.819 23.7876 21.2878C23.3187 21.7567 23.0553 22.3925 23.0553 23.0556C23.0553 23.7186 23.3187 24.3545 23.7876 24.8233C24.2564 25.2922 24.8923 25.5556 25.5553 25.5556ZM25.5553 27.2222C24.4503 27.2222 23.3905 26.7833 22.6091 26.0019C21.8277 25.2205 21.3887 24.1607 21.3887 23.0556C21.3887 21.9505 21.8277 20.8907 22.6091 20.1093C23.3905 19.3279 24.4503 18.8889 25.5553 18.8889C26.6604 18.8889 27.7202 19.3279 28.5016 20.1093C29.283 20.8907 29.722 21.9505 29.722 23.0556C29.722 24.1607 29.283 25.2205 28.5016 26.0019C27.7202 26.7833 26.6604 27.2222 25.5553 27.2222Z" fill="#EC1A23"/>
</svg>
